<?xml version="1.0" encoding="UTF-8"?>
<svg width="90" height="90" viewBox="0 0 90 90" fill="none" xmlns="http://www.w3.org/2000/svg">
  <circle cx="45" cy="45" r="45" fill="white"/>
  <path d="M45 25C36.6667 25 31.3333 29.1667 29 37.5C31.3333 33.3333 34.1667 31.6667 37.5 32.5C39.4583 33.0208 40.8333 34.4167 42.3958 35.9792C44.9583 38.5417 47.9167 41.5 55 41.5C63.3333 41.5 68.6667 37.3333 71 29C68.6667 33.1667 65.8333 34.8333 62.5 34C60.5417 33.4792 59.1667 32.0833 57.6042 30.5208C55.0417 27.9583 52.0833 25 45 25ZM29 41.5C20.6667 41.5 15.3333 45.6667 13 54C15.3333 49.8333 18.1667 48.1667 21.5 49C23.4583 49.5208 24.8333 50.9167 26.3958 52.4792C28.9583 55.0417 31.9167 58 39 58C47.3333 58 52.6667 53.8333 55 45.5C52.6667 49.6667 49.8333 51.3333 46.5 50.5C44.5417 49.9792 43.1667 48.5833 41.6042 47.0208C39.0417 44.4583 36.0833 41.5 29 41.5Z" fill="#06B6D4"/>
</svg>
