<?xml version="1.0" encoding="UTF-8"?>
<svg width="90" height="90" viewBox="0 0 90 90" fill="none" xmlns="http://www.w3.org/2000/svg">
  <circle cx="45" cy="45" r="45" fill="#3178C6"/>
  <path d="M20 45V20H70V70H20V45Z" fill="#3178C6"/>
  <path d="M51.6982 55.7779V62.0836C53.0439 62.8329 54.6135 63.3823 56.4071 63.7317C58.2007 64.0812 60.0724 64.2559 62.0221 64.2559C63.9136 64.2559 65.6489 64.0522 67.2281 63.6447C68.8073 63.2373 70.1723 62.6298 71.3231 61.8224C72.4739 61.015 73.3676 60.0075 74.0042 58.8C74.6408 57.5925 74.9591 56.1849 74.9591 54.5774C74.9591 53.4279 74.7772 52.4204 74.4134 51.5549C74.0496 50.6894 73.5112 49.9239 72.7982 49.2584C72.0851 48.5929 71.2096 47.9854 70.1723 47.4359C69.1349 46.8865 67.9841 46.337 66.7198 45.7876C65.7406 45.3801 64.8469 44.9727 64.0388 44.5652C63.2307 44.1578 62.5359 43.7503 61.9545 43.3429C61.3731 42.9354 60.9238 42.528 60.6055 42.1205C60.2872 41.7131 60.1281 41.2476 60.1281 40.7242C60.1281 40.2008 60.2645 39.7353 60.5374 39.3279C60.8103 38.9204 61.1967 38.571 61.6967 38.2795C62.1967 37.9881 62.8007 37.7547 63.5092 37.5793C64.2176 37.404 65.0166 37.3164 65.9062 37.3164C66.5428 37.3164 67.1968 37.3744 67.8681 37.4904C68.5394 37.6065 69.2062 37.7806 69.8683 38.0127C70.5304 38.2448 71.1743 38.5363 71.8002 38.8871C72.426 39.238 72.9963 39.6454 73.5112 40.1094V34.2451C72.2469 33.6957 70.8871 33.3042 69.4319 33.0708C67.9767 32.8374 66.3793 32.7207 64.6395 32.7207C62.7662 32.7207 61.0491 32.9249 59.4881 33.3331C57.9271 33.7414 56.5757 34.3489 55.434 35.1556C54.2923 35.9623 53.3986 36.9698 52.753 38.1781C52.1074 39.3864 51.7845 40.7949 51.7845 42.4033C51.7845 44.2429 52.2845 45.8225 53.2845 47.1421C54.2845 48.4616 55.8773 49.6232 58.0629 50.6267C59.0421 51.0342 59.9903 51.4417 60.9076 51.8491C61.8248 52.2566 62.6329 52.664 63.3322 53.0715C64.0316 53.479 64.5927 53.9155 65.0166 54.3809C65.4405 54.8464 65.6525 55.3698 65.6525 55.9513C65.6525 56.4167 65.5389 56.8242 65.3116 57.1736C65.0843 57.5231 64.7524 57.8145 64.3159 58.048C63.8793 58.2814 63.3322 58.4568 62.6738 58.5742C62.0153 58.6916 61.2527 58.7503 60.386 58.7503C58.9308 58.7503 57.4847 58.4568 56.0477 57.8698C54.6107 57.2829 53.0984 56.4167 51.6982 55.7779ZM39.8662 38.0127H49.9112V33.3042H24.3662V38.0127H34.3662V64.0225H39.8662V38.0127Z" fill="white"/>
</svg>
